HIERARCHY
ROOT joint_Root
{
	OFFSET 0.0 0.0 0.0
	CHANNELS 6 Xposition Yposition Zposition Zrotation Xrotation Yrotation 
	JOINT Hips
	{
		OFFSET 4.5925 91.4895 -427.239
		CHANNELS 6 Xposition Yposition Zposition Zrotation Xrotation Yrotation 
		JOINT Spine
		{
			OFFSET 15.7357 0.0 0.0
			CHANNELS 6 Xposition Yposition Zposition Zrotation Xrotation Yrotation 
			JOINT Chest
			{
				OFFSET 8.98455 -0.406207 0.0
				CHANNELS 6 Xposition Yposition Zposition Zrotation Xrotation Yrotation 
				JOINT Neck
				{
					OFFSET 16.3773 0.0 0.0
					CHANNELS 6 Xposition Yposition Zposition Zrotation Xrotation Yrotation 
					JOINT Head
					{
						OFFSET 6.45672 0.0 0.0
						CHANNELS 6 Xposition Yposition Zposition Zrotation Xrotation Yrotation 
						End Site
						{
							OFFSET 0.0 0.0 0.0
						}
					}
				}
				JOINT Shoulder_L
				{
					OFFSET 12.9942 -0.242716 4.98039
					CHANNELS 6 Xposition Yposition Zposition Zrotation Xrotation Yrotation 
					JOINT UpperArm_L
					{
						OFFSET 5.34809 0.0 0.0
						CHANNELS 6 Xposition Yposition Zposition Zrotation Xrotation Yrotation 
						JOINT LowerArm_L
						{
							OFFSET 24.3286 1.87007e-05 0.0
							CHANNELS 6 Xposition Yposition Zposition Zrotation Xrotation Yrotation 
							JOINT Hand_L
							{
								OFFSET 22.2916 0.0 0.0
								CHANNELS 6 Xposition Yposition Zposition Zrotation Xrotation Yrotation 
								End Site
								{
									OFFSET 0.0 0.0 0.0
								}
							}
						}
					}
				}
				JOINT Shoulder_R
				{
					OFFSET 12.9945 -0.242716 -4.98039
					CHANNELS 6 Xposition Yposition Zposition Zrotation Xrotation Yrotation 
					JOINT UpperArm_R
					{
						OFFSET -5.34813 0.0 0.0
						CHANNELS 6 Xposition Yposition Zposition Zrotation Xrotation Yrotation 
						JOINT LowerArm_R
						{
							OFFSET -24.3289 0.000322201 0.0
							CHANNELS 6 Xposition Yposition Zposition Zrotation Xrotation Yrotation 
							JOINT Hand_R
							{
								OFFSET -22.2915 -0.000108084 0.0
								CHANNELS 6 Xposition Yposition Zposition Zrotation Xrotation Yrotation 
								End Site
								{
									OFFSET 0.0 0.0 0.0
								}
							}
						}
					}
				}
			}
		}
		JOINT UpperLeg_L
		{
			OFFSET -2.19248 -6.46944 0.0
			CHANNELS 6 Xposition Yposition Zposition Zrotation Xrotation Yrotation 
			JOINT LowerLeg_L
			{
				OFFSET 39.0811 0.0 -1.23785e-05
				CHANNELS 6 Xposition Yposition Zposition Zrotation Xrotation Yrotation 
				JOINT Foot_L
				{
					OFFSET 40.9854 0.0 -1.26872e-05
					CHANNELS 6 Xposition Yposition Zposition Zrotation Xrotation Yrotation 
					JOINT Toes_L
					{
						OFFSET 11.7543 0.0 0.0
						CHANNELS 6 Xposition Yposition Zposition Zrotation Xrotation Yrotation 
						End Site
						{
							OFFSET 0.0 0.0 0.0
						}
					}
				}
			}
		}
		JOINT UpperLeg_R
		{
			OFFSET -2.19251 6.46944 0.0
			CHANNELS 6 Xposition Yposition Zposition Zrotation Xrotation Yrotation 
			JOINT LowerLeg_R
			{
				OFFSET -39.0811 -0.00228153 -0.0401928
				CHANNELS 6 Xposition Yposition Zposition Zrotation Xrotation Yrotation 
				JOINT Foot_R
				{
					OFFSET -40.9854 0.0 0.0
					CHANNELS 6 Xposition Yposition Zposition Zrotation Xrotation Yrotation 
					JOINT Toes_R
					{
						OFFSET -11.7543 0.0 0.0
						CHANNELS 6 Xposition Yposition Zposition Zrotation Xrotation Yrotation 
						End Site
						{
							OFFSET 0.0 0.0 0.0
						}
					}
				}
			}
		}
	}
}
MOTION
Frames:	4
Frame Time:	0.0333333
0.000000 0.000000 0.000000 0.000000 0.000000 -0.000000 -112.703000 89.604100 185.010000 178.840000 87.528500 -87.196500 15.735700 0.000005 -0.000001 89.425000 84.656600 -88.633700 8.984550 -0.406207 -0.000000 2.921770 -0.140581 1.584520 16.377300 -0.000001 -0.000001 0.140874 -3.407600 4.930230 6.456720 -0.000001 -0.000000 -6.719040 -3.374770 8.314070 12.994200 -0.242716 4.980390 -91.354100 4.590460 -73.545700 5.348090 -0.000007 -0.000001 -71.087400 37.992100 -8.816070 24.328600 0.000019 0.000005 6.877210 31.741400 -12.918900 22.291600 -0.000001 0.000005 7.151340 5.210160 2.462540 12.994500 -0.242716 -4.980390 88.313500 9.987460 -80.365100 -5.348130 -0.000001 -0.000004 -58.750900 25.006000 -20.871400 -24.328900 0.000322 -0.000009 -0.069751 -0.168009 -22.158700 -22.291500 -0.000108 -0.000004 18.275600 5.370690 -2.008430 -2.192480 -6.469440 -0.000000 179.107000 -3.630630 -21.463500 39.081100 -0.000007 -0.000012 -0.021860 0.009550 66.413200 40.985400 -0.000006 -0.000013 5.896610 -10.189000 -59.320600 11.754300 -0.000000 0.000003 -0.005251 -0.063883 -19.176200 -2.192510 6.469440 -0.000001 179.048000 10.366100 179.245000 -39.081100 -0.002282 -0.040193 0.059435 -0.076562 36.254600 -40.985400 0.000008 0.000006 11.125100 2.728920 -73.265500 -11.754300 -0.000006 -0.000006 -0.022743 -0.182033 -24.015800
0.000000 0.000000 0.000000 0.000000 0.000000 -0.000000 -110.137000 90.174100 184.755000 130.544000 86.021000 -39.502800 15.735700 0.000005 -0.000001 94.315700 84.694600 -93.817300 8.984550 -0.406207 -0.000000 2.811810 0.776204 0.976727 16.377300 -0.000001 -0.000001 -0.136395 -3.148600 4.912060 6.456720 -0.000001 -0.000000 -6.832330 -3.366260 8.100750 12.994200 -0.242716 4.980390 -91.243000 4.043840 -72.896700 5.348090 -0.000007 -0.000001 -73.569800 32.833000 -1.701890 24.328600 0.000019 0.000005 5.074280 34.991000 -8.802390 22.291600 -0.000001 0.000005 6.175970 5.167830 3.513180 12.994500 -0.242716 -4.980390 88.567400 9.006510 -80.924000 -5.348130 -0.000001 -0.000004 -57.954100 28.537700 -25.592300 -24.328900 0.000322 -0.000009 -0.494281 -0.921978 -28.136600 -22.291500 -0.000108 -0.000004 18.078100 5.392560 -2.697610 -2.192480 -6.469440 -0.000000 179.427000 -3.019860 -23.566300 39.081100 -0.000007 -0.000012 0.013938 -0.008177 59.586300 40.985400 -0.000006 -0.000013 5.495730 -8.388800 -61.560900 11.754300 -0.000000 0.000003 -0.005049 -0.061942 -19.097100 -2.192510 6.469440 -0.000001 177.832000 9.713360 -178.849000 -39.081100 -0.002282 -0.040193 0.053434 -0.074465 33.954500 -40.985400 0.000008 0.000006 11.615000 5.437890 -71.274600 -11.754300 -0.000006 -0.000006 -0.034718 -0.238328 -26.349200
0.000000 0.000000 0.000000 0.000000 0.000000 -0.000000 -107.574000 90.334200 184.573000 112.300000 83.598000 -22.087000 15.735700 0.000005 -0.000001 100.051000 84.744500 -99.823800 8.984550 -0.406207 -0.000000 2.581270 1.822650 0.413583 16.377300 -0.000001 -0.000001 -0.594136 -3.062900 4.716370 6.456720 -0.000001 -0.000000 -7.199130 -3.663990 7.755640 12.994200 -0.242716 4.980390 -91.059900 3.318370 -72.274200 5.348090 -0.000007 -0.000001 -74.338200 27.488500 4.269120 24.328600 0.000019 0.000005 3.196780 34.084700 -5.690960 22.291600 -0.000001 0.000005 6.606140 5.126970 4.487370 12.994500 -0.242716 -4.980390 88.728400 8.270040 -81.227000 -5.348130 -0.000001 -0.000004 -56.501800 31.503700 -29.976700 -24.328900 0.000322 -0.000009 -0.613977 -0.885854 -34.685100 -22.291500 -0.000108 -0.000004 18.038100 5.411540 -3.316240 -2.192480 -6.469440 -0.000000 -179.579000 -3.060690 -25.210700 39.081100 -0.000007 -0.000012 0.039960 -0.032393 50.967400 40.985400 -0.000006 -0.000013 5.383170 -6.752240 -62.662100 11.754300 -0.000000 0.000003 -0.004554 -0.057088 -18.899300 -2.192510 6.469440 -0.000001 176.952000 8.951380 -177.651000 -39.081100 -0.002282 -0.040193 0.051436 -0.075245 32.610100 -40.985400 0.000008 0.000006 12.025100 7.748010 -70.114800 -11.754300 -0.000006 -0.000006 -0.047862 -0.290050 -28.512800
0.000000 0.000000 0.000000 0.000000 0.000000 -0.000000 -104.863000 90.115800 184.392000 104.792000 81.441800 -15.345000 15.735700 0.000005 -0.000001 104.504000 84.739200 -104.532000 8.984550 -0.406207 -0.000000 2.423210 2.634340 -0.110534 16.377300 -0.000001 -0.000001 -1.277440 -2.998600 4.280140 6.456720 -0.000001 -0.000000 -7.697440 -4.195750 7.298100 12.994200 -0.242716 4.980390 -90.903900 2.712340 -71.560200 5.348090 -0.000007 -0.000001 -73.620600 22.597500 9.306330 24.328600 0.000019 0.000005 2.308190 32.235700 -4.321240 22.291600 -0.000001 0.000005 7.354740 5.105160 4.994660 12.994500 -0.242716 -4.980390 88.846600 7.784440 -81.545000 -5.348130 -0.000001 -0.000004 -54.659600 33.715500 -33.753000 -24.328900 0.000322 -0.000009 -0.205267 -0.230607 -41.629100 -22.291500 -0.000108 -0.000004 18.686800 5.430290 -3.947380 -2.192480 -6.469440 -0.000000 -178.251000 -3.206280 -26.335900 39.081100 -0.000007 -0.000012 0.041309 -0.046958 41.336500 40.985400 -0.000006 -0.000013 3.719640 -5.145910 -61.732100 11.754300 -0.000000 0.000003 -0.004277 -0.054299 -18.785700 -2.192510 6.469440 -0.000001 176.138000 8.323030 -176.565000 -39.081100 -0.002282 -0.040193 0.051037 -0.076499 31.966200 -40.985400 0.000008 0.000006 12.353200 9.514620 -69.694300 -11.754300 -0.000006 -0.000006 -0.061742 -0.337396 -30.513100
